<svg width="24" height="14" viewBox="0 0 24 14" fill="none" xmlns="http://www.w3.org/2000/svg">
<path fill-rule="evenodd" clip-rule="evenodd" d="M0 6.99996C0 7.55196 0.448 7.99996 1 7.99996H20.586L16.294 12.292C15.904 12.682 15.904 13.316 16.294 13.706C16.684 14.096 17.318 14.096 17.708 13.706L23.708 7.70597C23.8 7.61397 23.874 7.50396 23.924 7.38196C23.972 7.25996 24 7.13196 24 7.00396C24 7.00197 24 7.00196 24 6.99996C24 6.86996 23.974 6.73996 23.922 6.61796C23.872 6.49596 23.798 6.38596 23.706 6.29396L17.706 0.293965C17.316 -0.0960352 16.682 -0.0960352 16.292 0.293965C15.902 0.683965 15.902 1.31796 16.292 1.70796L20.586 5.99996H1C0.448 5.99996 0 6.44796 0 6.99996Z" fill="white"/>
</svg>
