<svg width="36" height="36" viewBox="0 0 36 36" fill="none" xmlns="http://www.w3.org/2000/svg">
<path d="M5.625 0C2.5184 0 0 2.5184 0 5.625V30.375C0 33.4816 2.5184 36 5.625 36H30.375C33.4816 36 36 33.4816 36 30.375V5.625C36 2.5184 33.4816 0 30.375 0H5.625Z" fill="#2CE6CE"/>
<path fill-rule="evenodd" clip-rule="evenodd" d="M8.19986 17.2201C8.77857 17.7501 9.46153 18.2049 10.2469 18.5841C10.7758 17.1904 11.7752 16.0439 13.1984 15.2515C13.5928 15.032 14.0904 15.1744 14.3097 15.5697C14.5289 15.965 14.3867 16.4636 13.9922 16.6832C12.7826 17.3565 12.1155 18.2594 11.771 19.1854C13.0113 19.5796 14.4407 19.8318 16.0527 19.9405C16.0129 18.2006 15.7875 16.3931 15.3899 14.7148C14.5962 11.3645 12.2779 10.0832 10.9666 9.61762C10.3018 9.38165 9.49531 9.2275 8.71544 9.2275C7.88442 9.2275 7.08357 9.4026 6.51699 9.84021C5.91812 10.3027 5.59574 10.9863 5.55877 11.8718C5.48719 13.5864 6.52387 15.6857 8.19986 17.2201ZM11.5693 22.4017C11.8866 24.1181 13.0157 26.0382 14.0349 26.5947C14.2599 26.7174 14.4431 26.7512 14.5796 26.6951C14.9735 26.5329 15.661 25.3579 15.9404 22.7858C15.983 22.3936 16.014 21.9906 16.0337 21.5799C14.3312 21.47 12.8026 21.2089 11.4534 20.7984C11.4252 21.4004 11.4871 21.9568 11.5693 22.4017ZM24.142 19.1854C23.7976 18.2594 23.1305 17.3565 21.9209 16.6832C21.5264 16.4636 21.3842 15.965 21.6034 15.5697C21.8226 15.1744 22.3202 15.0319 22.7147 15.2515C24.1379 16.0439 25.1372 17.1904 25.6662 18.5841C26.4516 18.2049 27.1345 17.7501 27.7132 17.2201C29.3892 15.6857 30.4259 13.5863 30.3543 11.8717C30.3173 10.9863 29.995 10.3027 29.3961 9.84021C28.2977 8.99181 26.3196 9.1302 24.9465 9.61762C23.6352 10.0833 21.3169 11.3645 20.5232 14.7148C20.1256 16.3931 19.9002 18.2006 19.8604 19.9405C21.4724 19.8318 22.9017 19.5796 24.142 19.1854ZM19.9727 22.7858C20.2521 25.3579 20.9396 26.5329 21.3336 26.6951C21.4701 26.7512 21.6533 26.7174 21.8781 26.5947C22.8975 26.0382 24.0265 24.1181 24.3437 22.4017C24.4259 21.9568 24.4879 21.4004 24.4597 20.7984C23.1105 21.2089 21.5818 21.47 19.8794 21.5799C19.899 21.9906 19.93 22.3936 19.9727 22.7858ZM3.92581 11.8033C3.98308 10.4314 4.53407 9.304 5.5192 8.54315C6.89698 7.47898 9.30531 7.29044 11.5124 8.07395C14.2769 9.05548 16.2698 11.3381 16.9801 14.3366C17.4104 16.1531 17.6514 18.1146 17.6879 20.0009C17.7769 20.0017 17.8665 20.0021 17.9565 20.0021C18.0466 20.0021 18.1362 20.0017 18.2252 20.0009C18.2617 18.1146 18.5027 16.1531 18.933 14.3366C19.6433 11.3382 21.6362 9.05554 24.4006 8.07401C26.6076 7.29037 29.0162 7.47891 30.394 8.54315C31.3791 9.304 31.93 10.4314 31.9873 11.8033C32.0796 14.0147 30.8643 16.5535 28.8157 18.4292C28.0414 19.1381 27.1199 19.7309 26.0555 20.2061C26.1454 20.9894 26.1125 21.8251 25.9508 22.6999C25.5364 24.9421 24.1217 27.2348 22.6601 28.0327C22.215 28.2759 21.8154 28.3602 21.4753 28.3601C21.1698 28.3601 20.9121 28.2921 20.7124 28.2099C19.1598 27.5706 18.5695 25.0038 18.3479 22.963C18.3011 22.5323 18.2673 22.0897 18.2463 21.6385C18.1502 21.6394 18.0536 21.6398 17.9565 21.6398C17.8595 21.6398 17.7629 21.6394 17.6667 21.6385C17.6458 22.0897 17.612 22.5323 17.5652 22.963C17.1636 26.6603 16.0577 27.857 15.2007 28.2099C15.0009 28.2921 14.7433 28.3602 14.4378 28.3601C14.0976 28.3601 13.6981 28.2758 13.253 28.0328C11.7913 27.2348 10.3767 24.9422 9.96227 22.6999C9.8006 21.8251 9.76764 20.9894 9.8576 20.2061C8.79321 19.7309 7.87176 19.1381 7.0974 18.4292C5.04877 16.5535 3.83347 14.0147 3.92581 11.8033Z" fill="white"/>
</svg>
