<svg width="28" height="28" viewBox="0 0 28 28" fill="none" xmlns="http://www.w3.org/2000/svg">
<path fill-rule="evenodd" clip-rule="evenodd" d="M15.6938 1.09951C15.0009 -0.366502 12.999 -0.366502 12.3062 1.09951L9.44326 7.15675C9.16807 7.73894 8.63623 8.14242 8.02104 8.23578L1.61943 9.20712C0.0700394 9.44217 -0.548609 11.4303 0.572475 12.5714L5.20473 17.2864C5.64998 17.7395 5.85312 18.3924 5.74798 19.0322L4.65445 25.6898C4.38985 27.3011 6.00945 28.5298 7.39524 27.769L13.121 24.6258C13.6713 24.3237 14.3287 24.3237 14.879 24.6257L20.6048 27.769C21.9905 28.5298 23.6101 27.3011 23.3456 25.6898L22.252 19.0322C22.1469 18.3924 22.35 17.7395 22.7953 17.2864L27.4275 12.5714C28.5486 11.4303 27.93 9.44217 26.3806 9.20712L19.979 8.23578C19.3638 8.14242 18.8319 7.73894 18.5567 7.15675L15.6938 1.09951ZM13.471 13.0089V19.2122H14.7556V11.8649H12.1111V13.0089H13.471Z" fill="white"/>
</svg>
