<svg width="29" height="28" viewBox="0 0 29 28" fill="none" xmlns="http://www.w3.org/2000/svg">
<path fill-rule="evenodd" clip-rule="evenodd" d="M15.9161 1.09951C15.2232 -0.366502 13.2213 -0.366502 12.5284 1.09951L9.66549 7.15675C9.39029 7.73894 8.85846 8.14242 8.24327 8.23578L1.84166 9.20712C0.292268 9.44217 -0.32638 11.4303 0.794704 12.5714L5.42696 17.2864C5.87221 17.7395 6.07535 18.3924 5.9702 19.0322L4.87668 25.6898C4.61208 27.3011 6.23168 28.5298 7.61747 27.769L13.3433 24.6258C13.8935 24.3237 14.5509 24.3237 15.1012 24.6257L20.827 27.769C22.2128 28.5298 23.8324 27.3011 23.5678 25.6898L22.4743 19.0322C22.3691 18.3924 22.5722 17.7395 23.0175 17.2864L27.6498 12.5714C28.7708 11.4303 28.1522 9.44217 26.6028 9.20712L20.2012 8.23578C19.586 8.14242 19.0542 7.73894 18.779 7.15675L15.9161 1.09951ZM11.8391 18.1964V19.2122H16.5614V18.078H13.5107L15.1635 16.2635C15.4658 15.9347 15.7113 15.6388 15.9002 15.3758C16.0891 15.1063 16.2307 14.8433 16.3252 14.5869C16.4197 14.3305 16.4668 14.0708 16.4668 13.8078C16.4668 13.3936 16.3693 13.032 16.1741 12.7229C15.9851 12.414 15.7175 12.174 15.3713 12.003C15.0313 11.8321 14.6346 11.7466 14.1813 11.7466C13.8035 11.7466 13.4446 11.8255 13.1046 11.9833C12.7708 12.1345 12.4876 12.3547 12.2546 12.644C12.0216 12.9268 11.8673 13.2621 11.7918 13.65L12.9156 14.0149C13.0164 13.6664 13.177 13.4034 13.3973 13.2259C13.6178 13.0418 13.879 12.9498 14.1813 12.9498C14.4709 12.9498 14.707 13.0385 14.8896 13.216C15.0785 13.3936 15.1729 13.6369 15.1729 13.9458C15.1729 14.0447 15.161 14.1427 15.1374 14.2396C15.1171 14.3232 15.0881 14.4061 15.0501 14.4883C14.9683 14.6658 14.8235 14.8795 14.6157 15.1293C14.4142 15.3726 14.1246 15.7013 13.7468 16.1155L11.8391 18.1964Z" fill="#8F90BE"/>
</svg>
