<svg width="16" height="16" viewBox="0 0 16 16" fill="none" xmlns="http://www.w3.org/2000/svg">
<path fill-rule="evenodd" clip-rule="evenodd" d="M1.8092 9.09898C2.1992 11.3109 3.7457 13.124 5.8019 13.8916V11.2971C5.8019 10.7141 5.57032 10.155 5.15809 9.74279C4.74588 9.33057 4.18679 9.09898 3.60382 9.09898H1.8092ZM10.7254 13.6668C12.8326 12.6515 14.2868 10.4955 14.2868 7.99994C14.2868 6.55095 13.7965 5.21646 12.9729 4.15326H9.62639C9.04342 4.15326 8.48433 4.38483 8.0721 4.79705C7.65989 5.20928 7.42831 5.76836 7.42831 6.35134C7.42831 6.93431 7.65989 7.49339 8.0721 7.90562C8.48433 8.31784 9.04342 8.54943 9.62639 8.54943C9.91788 8.54943 10.1974 8.66521 10.4035 8.87132C10.6096 9.07744 10.7254 9.35698 10.7254 9.64847V13.6668ZM8.00009 -0.000976562C3.58132 -0.000976562 -0.000823975 3.58115 -0.000823975 7.99994C-0.000823975 12.4188 3.58132 16.0008 8.00009 16.0008C12.4189 16.0008 16.001 12.4188 16.001 7.99994C16.001 3.58115 12.4189 -0.000976562 8.00009 -0.000976562Z" fill="#8F90BE"/>
</svg>
